<?xml version="1.0" encoding="utf-8"?>
<!-- Generator: Adobe Illustrator 28.0.0, SVG Export Plug-In . SVG Version: 6.00 Build 0)  -->
<svg version="1.1" id="图层_1" xmlns="http://www.w3.org/2000/svg" xmlns:xlink="http://www.w3.org/1999/xlink" x="0px" y="0px"
	 viewBox="0 0 512 512" xml:space="preserve">
<path fill="#424242" d="M92.6,0.2h328c50.8,0,92,41.2,92,92v328c0,50.8-41.2,92-92,92h-328c-50.8,0-92-41.2-92-92v-328
	C0.6,41.4,41.8,0.2,92.6,0.2z"/>
<path fill="#FFFFFF" d="M472.5,181.2c50.3-138.3-173.3-38.4-229.3-4.5c-90,54.6-163.5,119.1-192,178.6c-6.3,13.2-12.3,31.6-4.8,48.2
	c3.7,8.3,17.7,20.8,50,22.9c-23.4-12.4-33.2-22.2-34-35.9c-1.3-22.8,6.2-40,22.6-63.6c54-77.7,179.6-152.3,237.6-174.6
	c140.1-56.8,164.5,26.2,69.1,123.8C402.2,268.4,461.8,212.3,472.5,181.2z"/>
<linearGradient id="SVGID_1_" gradientUnits="userSpaceOnUse" x1="256.05" y1="40.5511" x2="256.05" y2="315.3511" gradientTransform="matrix(1 0 0 -1 0 512.5511)">
	<stop  offset="0" style="stop-color:#FF8C00"/>
	<stop  offset="1" style="stop-color:#FF6B35"/>
</linearGradient>
<path fill="url(#SVGID_1_)" d="M340.2,454h-36c-7.3,0-13.2-5.9-13.2-13.2V197.2l-70,25.9v217.7c0,7.3-5.9,13.2-13.2,13.2h-36v18
	h168.5L340.2,454L340.2,454z"/>
<linearGradient id="SVGID_00000016770910222067140450000007342400195036020372_" gradientUnits="userSpaceOnUse" x1="368.5818" y1="440.7734" x2="368.5818" y2="538.0445" gradientTransform="matrix(0.9404 0.3401 0.3401 -0.9404 -246.2888 434.0227)">
	<stop  offset="0" style="stop-color:#FF6B35"/>
	<stop  offset="1" style="stop-color:#FF8C00"/>
</linearGradient>
<path fill="url(#SVGID_00000016770910222067140450000007342400195036020372_)" d="M207.8,26.1l-6.3,17.5l31.8,11.5
	c6,2.2,9,8.7,6.9,14.7L217.4,133l72.3,6L306,93.6c2.2-6,8.7-9,14.7-6.9l31.8,11.5l6.3-17.5L207.8,26.1z"/>
</svg>
